<svg class="rich-terminal" viewBox="0 0 1360 1245.6" xmlns="http://www.w3.org/2000/svg">
    <!-- Generated with Rich https://www.textualize.io -->
    <style>

    @font-face {
        font-family: "Fira Code";
        src: local("FiraCode-Regular"),
                url("https://cdnjs.cloudflare.com/ajax/libs/firacode/6.2.0/woff2/FiraCode-Regular.woff2") format("woff2"),
                url("https://cdnjs.cloudflare.com/ajax/libs/firacode/6.2.0/woff/FiraCode-Regular.woff") format("woff");
        font-style: normal;
        font-weight: 400;
    }
    @font-face {
        font-family: "Fira Code";
        src: local("FiraCode-Bold"),
                url("https://cdnjs.cloudflare.com/ajax/libs/firacode/6.2.0/woff2/FiraCode-Bold.woff2") format("woff2"),
                url("https://cdnjs.cloudflare.com/ajax/libs/firacode/6.2.0/woff/FiraCode-Bold.woff") format("woff");
        font-style: bold;
        font-weight: 700;
    }

    .terminal-133882381-matrix {
        font-family: Fira Code, monospace;
        font-size: 20px;
        line-height: 24.4px;
        font-variant-east-asian: full-width;
    }

    .terminal-133882381-title {
        font-size: 18px;
        font-weight: bold;
        font-family: arial;
    }

    .terminal-133882381-r1 { fill: #c5c8c6 }
.terminal-133882381-r2 { fill: #e6edf3;font-weight: bold }
.terminal-133882381-r3 { fill: #3fb950 }
.terminal-133882381-r4 { fill: #0d1117 }
.terminal-133882381-r5 { fill: #9ca2a8 }
.terminal-133882381-r6 { fill: #f75149 }
.terminal-133882381-r7 { fill: #e6edf3 }
.terminal-133882381-r8 { fill: #58a6ff;font-weight: bold }
.terminal-133882381-r9 { fill: #000000 }
.terminal-133882381-r10 { fill: #6c6e72 }
    </style>

    <defs>
    <clipPath id="terminal-133882381-clip-terminal">
      <rect x="0" y="0" width="1341.0" height="1194.6" />
    </clipPath>
    <clipPath id="terminal-133882381-line-0">
    <rect x="0" y="1.5" width="1342" height="24.65"/>
            </clipPath>
<clipPath id="terminal-133882381-line-1">
    <rect x="0" y="25.9" width="1342" height="24.65"/>
            </clipPath>
<clipPath id="terminal-133882381-line-2">
    <rect x="0" y="50.3" width="1342" height="24.65"/>
            </clipPath>
<clipPath id="terminal-133882381-line-3">
    <rect x="0" y="74.7" width="1342" height="24.65"/>
            </clipPath>
<clipPath id="terminal-133882381-line-4">
    <rect x="0" y="99.1" width="1342" height="24.65"/>
            </clipPath>
<clipPath id="terminal-133882381-line-5">
    <rect x="0" y="123.5" width="1342" height="24.65"/>
            </clipPath>
<clipPath id="terminal-133882381-line-6">
    <rect x="0" y="147.9" width="1342" height="24.65"/>
            </clipPath>
<clipPath id="terminal-133882381-line-7">
    <rect x="0" y="172.3" width="1342" height="24.65"/>
            </clipPath>
<clipPath id="terminal-133882381-line-8">
    <rect x="0" y="196.7" width="1342" height="24.65"/>
            </clipPath>
<clipPath id="terminal-133882381-line-9">
    <rect x="0" y="221.1" width="1342" height="24.65"/>
            </clipPath>
<clipPath id="terminal-133882381-line-10">
    <rect x="0" y="245.5" width="1342" height="24.65"/>
            </clipPath>
<clipPath id="terminal-133882381-line-11">
    <rect x="0" y="269.9" width="1342" height="24.65"/>
            </clipPath>
<clipPath id="terminal-133882381-line-12">
    <rect x="0" y="294.3" width="1342" height="24.65"/>
            </clipPath>
<clipPath id="terminal-133882381-line-13">
    <rect x="0" y="318.7" width="1342" height="24.65"/>
            </clipPath>
<clipPath id="terminal-133882381-line-14">
    <rect x="0" y="343.1" width="1342" height="24.65"/>
            </clipPath>
<clipPath id="terminal-133882381-line-15">
    <rect x="0" y="367.5" width="1342" height="24.65"/>
            </clipPath>
<clipPath id="terminal-133882381-line-16">
    <rect x="0" y="391.9" width="1342" height="24.65"/>
            </clipPath>
<clipPath id="terminal-133882381-line-17">
    <rect x="0" y="416.3" width="1342" height="24.65"/>
            </clipPath>
<clipPath id="terminal-133882381-line-18">
    <rect x="0" y="440.7" width="1342" height="24.65"/>
            </clipPath>
<clipPath id="terminal-133882381-line-19">
    <rect x="0" y="465.1" width="1342" height="24.65"/>
            </clipPath>
<clipPath id="terminal-133882381-line-20">
    <rect x="0" y="489.5" width="1342" height="24.65"/>
            </clipPath>
<clipPath id="terminal-133882381-line-21">
    <rect x="0" y="513.9" width="1342" height="24.65"/>
            </clipPath>
<clipPath id="terminal-133882381-line-22">
    <rect x="0" y="538.3" width="1342" height="24.65"/>
            </clipPath>
<clipPath id="terminal-133882381-line-23">
    <rect x="0" y="562.7" width="1342" height="24.65"/>
            </clipPath>
<clipPath id="terminal-133882381-line-24">
    <rect x="0" y="587.1" width="1342" height="24.65"/>
            </clipPath>
<clipPath id="terminal-133882381-line-25">
    <rect x="0" y="611.5" width="1342" height="24.65"/>
            </clipPath>
<clipPath id="terminal-133882381-line-26">
    <rect x="0" y="635.9" width="1342" height="24.65"/>
            </clipPath>
<clipPath id="terminal-133882381-line-27">
    <rect x="0" y="660.3" width="1342" height="24.65"/>
            </clipPath>
<clipPath id="terminal-133882381-line-28">
    <rect x="0" y="684.7" width="1342" height="24.65"/>
            </clipPath>
<clipPath id="terminal-133882381-line-29">
    <rect x="0" y="709.1" width="1342" height="24.65"/>
            </clipPath>
<clipPath id="terminal-133882381-line-30">
    <rect x="0" y="733.5" width="1342" height="24.65"/>
            </clipPath>
<clipPath id="terminal-133882381-line-31">
    <rect x="0" y="757.9" width="1342" height="24.65"/>
            </clipPath>
<clipPath id="terminal-133882381-line-32">
    <rect x="0" y="782.3" width="1342" height="24.65"/>
            </clipPath>
<clipPath id="terminal-133882381-line-33">
    <rect x="0" y="806.7" width="1342" height="24.65"/>
            </clipPath>
<clipPath id="terminal-133882381-line-34">
    <rect x="0" y="831.1" width="1342" height="24.65"/>
            </clipPath>
<clipPath id="terminal-133882381-line-35">
    <rect x="0" y="855.5" width="1342" height="24.65"/>
            </clipPath>
<clipPath id="terminal-133882381-line-36">
    <rect x="0" y="879.9" width="1342" height="24.65"/>
            </clipPath>
<clipPath id="terminal-133882381-line-37">
    <rect x="0" y="904.3" width="1342" height="24.65"/>
            </clipPath>
<clipPath id="terminal-133882381-line-38">
    <rect x="0" y="928.7" width="1342" height="24.65"/>
            </clipPath>
<clipPath id="terminal-133882381-line-39">
    <rect x="0" y="953.1" width="1342" height="24.65"/>
            </clipPath>
<clipPath id="terminal-133882381-line-40">
    <rect x="0" y="977.5" width="1342" height="24.65"/>
            </clipPath>
<clipPath id="terminal-133882381-line-41">
    <rect x="0" y="1001.9" width="1342" height="24.65"/>
            </clipPath>
<clipPath id="terminal-133882381-line-42">
    <rect x="0" y="1026.3" width="1342" height="24.65"/>
            </clipPath>
<clipPath id="terminal-133882381-line-43">
    <rect x="0" y="1050.7" width="1342" height="24.65"/>
            </clipPath>
<clipPath id="terminal-133882381-line-44">
    <rect x="0" y="1075.1" width="1342" height="24.65"/>
            </clipPath>
<clipPath id="terminal-133882381-line-45">
    <rect x="0" y="1099.5" width="1342" height="24.65"/>
            </clipPath>
<clipPath id="terminal-133882381-line-46">
    <rect x="0" y="1123.9" width="1342" height="24.65"/>
            </clipPath>
<clipPath id="terminal-133882381-line-47">
    <rect x="0" y="1148.3" width="1342" height="24.65"/>
            </clipPath>
    </defs>

    <rect fill="#292929" stroke="rgba(255,255,255,0.35)" stroke-width="1" x="1" y="1" width="1358" height="1243.6" rx="8"/><text class="terminal-133882381-title" fill="#c5c8c6" text-anchor="middle" x="679" y="27">t212</text>
            <g transform="translate(26,22)">
            <circle cx="0" cy="0" r="7" fill="#ff5f57"/>
            <circle cx="22" cy="0" r="7" fill="#febc2e"/>
            <circle cx="44" cy="0" r="7" fill="#28c840"/>
            </g>
        
    <g transform="translate(9, 41)" clip-path="url(#terminal-133882381-clip-terminal)">
    <rect fill="#0d1117" x="0" y="1.5" width="12.2" height="24.65" shape-rendering="crispEdges"/><rect fill="#0d1117" x="12.2" y="1.5" width="85.4" height="24.65" shape-rendering="crispEdges"/><rect fill="#0d1117" x="97.6" y="1.5" width="73.2" height="24.65" shape-rendering="crispEdges"/><rect fill="#0d1117" x="170.8" y="1.5" width="158.6" height="24.65" shape-rendering="crispEdges"/><rect fill="#0d1117" x="329.4" y="1.5" width="976" height="24.65" shape-rendering="crispEdges"/><rect fill="#0d1117" x="1305.4" y="1.5" width="12.2" height="24.65" shape-rendering="crispEdges"/><rect fill="#234266" x="1317.6" y="1.5" width="24.4" height="24.65" shape-rendering="crispEdges"/><rect fill="#0d1117" x="0" y="25.9" width="12.2" height="24.65" shape-rendering="crispEdges"/><rect fill="#0d1117" x="12.2" y="25.9" width="219.6" height="24.65" shape-rendering="crispEdges"/><rect fill="#0d1117" x="231.8" y="25.9" width="122" height="24.65" shape-rendering="crispEdges"/><rect fill="#0d1117" x="353.8" y="25.9" width="109.8" height="24.65" shape-rendering="crispEdges"/><rect fill="#0d1117" x="463.6" y="25.9" width="122" height="24.65" shape-rendering="crispEdges"/><rect fill="#0d1117" x="585.6" y="25.9" width="183" height="24.65" shape-rendering="crispEdges"/><rect fill="#0d1117" x="768.6" y="25.9" width="536.8" height="24.65" shape-rendering="crispEdges"/><rect fill="#0d1117" x="1305.4" y="25.9" width="12.2" height="24.65" shape-rendering="crispEdges"/><rect fill="#234266" x="1317.6" y="25.9" width="24.4" height="24.65" shape-rendering="crispEdges"/><rect fill="#0d1117" x="0" y="50.3" width="12.2" height="24.65" shape-rendering="crispEdges"/><rect fill="#0d1117" x="12.2" y="50.3" width="1293.2" height="24.65" shape-rendering="crispEdges"/><rect fill="#0d1117" x="1305.4" y="50.3" width="12.2" height="24.65" shape-rendering="crispEdges"/><rect fill="#234266" x="1317.6" y="50.3" width="24.4" height="24.65" shape-rendering="crispEdges"/><rect fill="#0d1117" x="0" y="74.7" width="12.2" height="24.65" shape-rendering="crispEdges"/><rect fill="#0d1117" x="12.2" y="74.7" width="158.6" height="24.65" shape-rendering="crispEdges"/><rect fill="#0d1117" x="170.8" y="74.7" width="12.2" height="24.65" shape-rendering="crispEdges"/><rect fill="#0d1117" x="183" y="74.7" width="158.6" height="24.65" shape-rendering="crispEdges"/><rect fill="#0d1117" x="341.6" y="74.7" width="12.2" height="24.65" shape-rendering="crispEdges"/><rect fill="#0d1117" x="353.8" y="74.7" width="97.6" height="24.65" shape-rendering="crispEdges"/><rect fill="#0d1117" x="451.4" y="74.7" width="12.2" height="24.65" shape-rendering="crispEdges"/><rect fill="#0d1117" x="463.6" y="74.7" width="134.2" height="24.65" shape-rendering="crispEdges"/><rect fill="#0d1117" x="597.8" y="74.7" width="12.2" height="24.65" shape-rendering="crispEdges"/><rect fill="#0d1117" x="610" y="74.7" width="122" height="24.65" shape-rendering="crispEdges"/><rect fill="#0d1117" x="732" y="74.7" width="573.4" height="24.65" shape-rendering="crispEdges"/><rect fill="#0d1117" x="1305.4" y="74.7" width="12.2" height="24.65" shape-rendering="crispEdges"/><rect fill="#234266" x="1317.6" y="74.7" width="24.4" height="24.65" shape-rendering="crispEdges"/><rect fill="#0d1117" x="0" y="99.1" width="134.2" height="24.65" shape-rendering="crispEdges"/><rect fill="#0d1117" x="134.2" y="99.1" width="1183.4" height="24.65" shape-rendering="crispEdges"/><rect fill="#234266" x="1317.6" y="99.1" width="24.4" height="24.65" shape-rendering="crispEdges"/><rect fill="#0d1117" x="0" y="123.5" width="292.8" height="24.65" shape-rendering="crispEdges"/><rect fill="#0d1117" x="292.8" y="123.5" width="183" height="24.65" shape-rendering="crispEdges"/><rect fill="#0d1117" x="475.8" y="123.5" width="841.8" height="24.65" shape-rendering="crispEdges"/><rect fill="#234266" x="1317.6" y="123.5" width="24.4" height="24.65" shape-rendering="crispEdges"/><rect fill="#0d1117" x="0" y="147.9" width="146.4" height="24.65" shape-rendering="crispEdges"/><rect fill="#0d1117" x="146.4" y="147.9" width="244" height="24.65" shape-rendering="crispEdges"/><rect fill="#0d1117" x="390.4" y="147.9" width="927.2" height="24.65" shape-rendering="crispEdges"/><rect fill="#234266" x="1317.6" y="147.9" width="24.4" height="24.65" shape-rendering="crispEdges"/><rect fill="#0d1117" x="0" y="172.3" width="146.4" height="24.65" shape-rendering="crispEdges"/><rect fill="#0d1117" x="146.4" y="172.3" width="122" height="24.65" shape-rendering="crispEdges"/><rect fill="#0d1117" x="268.4" y="172.3" width="1049.2" height="24.65" shape-rendering="crispEdges"/><rect fill="#234266" x="1317.6" y="172.3" width="24.4" height="24.65" shape-rendering="crispEdges"/><rect fill="#0d1117" x="0" y="196.7" width="0" height="24.65" shape-rendering="crispEdges"/><rect fill="#0d1117" x="0" y="196.7" width="1317.6" height="24.65" shape-rendering="crispEdges"/><rect fill="#234266" x="1317.6" y="196.7" width="24.4" height="24.65" shape-rendering="crispEdges"/><rect fill="#0d1117" x="0" y="221.1" width="48.8" height="24.65" shape-rendering="crispEdges"/><rect fill="#0d1117" x="48.8" y="221.1" width="1268.8" height="24.65" shape-rendering="crispEdges"/><rect fill="#234266" x="1317.6" y="221.1" width="24.4" height="24.65" shape-rendering="crispEdges"/><rect fill="#0d1117" x="0" y="245.5" width="231.8" height="24.65" shape-rendering="crispEdges"/><rect fill="#0d1117" x="231.8" y="245.5" width="1085.8" height="24.65" shape-rendering="crispEdges"/><rect fill="#234266" x="1317.6" y="245.5" width="24.4" height="24.65" shape-rendering="crispEdges"/><rect fill="#0d1117" x="0" y="269.9" width="231.8" height="24.65" shape-rendering="crispEdges"/><rect fill="#0d1117" x="231.8" y="269.9" width="1085.8" height="24.65" shape-rendering="crispEdges"/><rect fill="#234266" x="1317.6" y="269.9" width="24.4" height="24.65" shape-rendering="crispEdges"/><rect fill="#0d1117" x="0" y="294.3" width="207.4" height="24.65" shape-rendering="crispEdges"/><rect fill="#0d1117" x="207.4" y="294.3" width="1110.2" height="24.65" shape-rendering="crispEdges"/><rect fill="#234266" x="1317.6" y="294.3" width="24.4" height="24.65" shape-rendering="crispEdges"/><rect fill="#0d1117" x="0" y="318.7" width="146.4" height="24.65" shape-rendering="crispEdges"/><rect fill="#0d1117" x="146.4" y="318.7" width="122" height="24.65" shape-rendering="crispEdges"/><rect fill="#0d1117" x="268.4" y="318.7" width="1049.2" height="24.65" shape-rendering="crispEdges"/><rect fill="#234266" x="1317.6" y="318.7" width="24.4" height="24.65" shape-rendering="crispEdges"/><rect fill="#0d1117" x="0" y="343.1" width="0" height="24.65" shape-rendering="crispEdges"/><rect fill="#0d1117" x="0" y="343.1" width="1317.6" height="24.65" shape-rendering="crispEdges"/><rect fill="#234266" x="1317.6" y="343.1" width="24.4" height="24.65" shape-rendering="crispEdges"/><rect fill="#0d1117" x="0" y="367.5" width="48.8" height="24.65" shape-rendering="crispEdges"/><rect fill="#0d1117" x="48.8" y="367.5" width="1268.8" height="24.65" shape-rendering="crispEdges"/><rect fill="#234266" x="1317.6" y="367.5" width="24.4" height="24.65" shape-rendering="crispEdges"/><rect fill="#0d1117" x="0" y="391.9" width="390.4" height="24.65" shape-rendering="crispEdges"/><rect fill="#0d1117" x="390.4" y="391.9" width="219.6" height="24.65" shape-rendering="crispEdges"/><rect fill="#0d1117" x="610" y="391.9" width="24.4" height="24.65" shape-rendering="crispEdges"/><rect fill="#0d1117" x="634.4" y="391.9" width="61" height="24.65" shape-rendering="crispEdges"/><rect fill="#0d1117" x="695.4" y="391.9" width="622.2" height="24.65" shape-rendering="crispEdges"/><rect fill="#234266" x="1317.6" y="391.9" width="24.4" height="24.65" shape-rendering="crispEdges"/><rect fill="#0d1117" x="0" y="416.3" width="390.4" height="24.65" shape-rendering="crispEdges"/><rect fill="#0d1117" x="390.4" y="416.3" width="207.4" height="24.65" shape-rendering="crispEdges"/><rect fill="#0d1117" x="597.8" y="416.3" width="719.8" height="24.65" shape-rendering="crispEdges"/><rect fill="#234266" x="1317.6" y="416.3" width="24.4" height="24.65" shape-rendering="crispEdges"/><rect fill="#0d1117" x="0" y="440.7" width="0" height="24.65" shape-rendering="crispEdges"/><rect fill="#0d1117" x="0" y="440.7" width="1317.6" height="24.65" shape-rendering="crispEdges"/><rect fill="#234266" x="1317.6" y="440.7" width="24.4" height="24.65" shape-rendering="crispEdges"/><rect fill="#0d1117" x="0" y="465.1" width="170.8" height="24.65" shape-rendering="crispEdges"/><rect fill="#0d1117" x="170.8" y="465.1" width="1146.8" height="24.65" shape-rendering="crispEdges"/><rect fill="#234266" x="1317.6" y="465.1" width="24.4" height="24.65" shape-rendering="crispEdges"/><rect fill="#0d1117" x="0" y="489.5" width="36.6" height="24.65" shape-rendering="crispEdges"/><rect fill="#0d1117" x="36.6" y="489.5" width="280.6" height="24.65" shape-rendering="crispEdges"/><rect fill="#0d1117" x="317.2" y="489.5" width="134.2" height="24.65" shape-rendering="crispEdges"/><rect fill="#0d1117" x="451.4" y="489.5" width="866.2" height="24.65" shape-rendering="crispEdges"/><rect fill="#234266" x="1317.6" y="489.5" width="24.4" height="24.65" shape-rendering="crispEdges"/><rect fill="#0d1117" x="0" y="513.9" width="48.8" height="24.65" shape-rendering="crispEdges"/><rect fill="#0d1117" x="48.8" y="513.9" width="305" height="24.65" shape-rendering="crispEdges"/><rect fill="#0d1117" x="353.8" y="513.9" width="134.2" height="24.65" shape-rendering="crispEdges"/><rect fill="#0d1117" x="488" y="513.9" width="829.6" height="24.65" shape-rendering="crispEdges"/><rect fill="#234266" x="1317.6" y="513.9" width="24.4" height="24.65" shape-rendering="crispEdges"/><rect fill="#0d1117" x="0" y="538.3" width="0" height="24.65" shape-rendering="crispEdges"/><rect fill="#0d1117" x="0" y="538.3" width="1317.6" height="24.65" shape-rendering="crispEdges"/><rect fill="#234266" x="1317.6" y="538.3" width="24.4" height="24.65" shape-rendering="crispEdges"/><rect fill="#0d1117" x="0" y="562.7" width="207.4" height="24.65" shape-rendering="crispEdges"/><rect fill="#0d1117" x="207.4" y="562.7" width="1110.2" height="24.65" shape-rendering="crispEdges"/><rect fill="#234266" x="1317.6" y="562.7" width="24.4" height="24.65" shape-rendering="crispEdges"/><rect fill="#0d1117" x="0" y="587.1" width="219.6" height="24.65" shape-rendering="crispEdges"/><rect fill="#0d1117" x="219.6" y="587.1" width="1098" height="24.65" shape-rendering="crispEdges"/><rect fill="#234266" x="1317.6" y="587.1" width="24.4" height="24.65" shape-rendering="crispEdges"/><rect fill="#0d1117" x="0" y="611.5" width="207.4" height="24.65" shape-rendering="crispEdges"/><rect fill="#0d1117" x="207.4" y="611.5" width="1110.2" height="24.65" shape-rendering="crispEdges"/><rect fill="#234266" x="1317.6" y="611.5" width="24.4" height="24.65" shape-rendering="crispEdges"/><rect fill="#0d1117" x="0" y="635.9" width="219.6" height="24.65" shape-rendering="crispEdges"/><rect fill="#0d1117" x="219.6" y="635.9" width="1098" height="24.65" shape-rendering="crispEdges"/><rect fill="#234266" x="1317.6" y="635.9" width="24.4" height="24.65" shape-rendering="crispEdges"/><rect fill="#0d1117" x="0" y="660.3" width="0" height="24.65" shape-rendering="crispEdges"/><rect fill="#0d1117" x="0" y="660.3" width="1317.6" height="24.65" shape-rendering="crispEdges"/><rect fill="#234266" x="1317.6" y="660.3" width="24.4" height="24.65" shape-rendering="crispEdges"/><rect fill="#0d1117" x="0" y="684.7" width="97.6" height="24.65" shape-rendering="crispEdges"/><rect fill="#0d1117" x="97.6" y="684.7" width="1220" height="24.65" shape-rendering="crispEdges"/><rect fill="#234266" x="1317.6" y="684.7" width="24.4" height="24.65" shape-rendering="crispEdges"/><rect fill="#0d1117" x="0" y="709.1" width="268.4" height="24.65" shape-rendering="crispEdges"/><rect fill="#0d1117" x="268.4" y="709.1" width="1049.2" height="24.65" shape-rendering="crispEdges"/><rect fill="#234266" x="1317.6" y="709.1" width="24.4" height="24.65" shape-rendering="crispEdges"/><rect fill="#0d1117" x="0" y="733.5" width="158.6" height="24.65" shape-rendering="crispEdges"/><rect fill="#0d1117" x="158.6" y="733.5" width="158.6" height="24.65" shape-rendering="crispEdges"/><rect fill="#0d1117" x="317.2" y="733.5" width="1000.4" height="24.65" shape-rendering="crispEdges"/><rect fill="#234266" x="1317.6" y="733.5" width="24.4" height="24.65" shape-rendering="crispEdges"/><rect fill="#0d1117" x="0" y="757.9" width="0" height="24.65" shape-rendering="crispEdges"/><rect fill="#0d1117" x="0" y="757.9" width="1317.6" height="24.65" shape-rendering="crispEdges"/><rect fill="#234266" x="1317.6" y="757.9" width="24.4" height="24.65" shape-rendering="crispEdges"/><rect fill="#0d1117" x="0" y="782.3" width="244" height="24.65" shape-rendering="crispEdges"/><rect fill="#0d1117" x="244" y="782.3" width="1073.6" height="24.65" shape-rendering="crispEdges"/><rect fill="#234266" x="1317.6" y="782.3" width="24.4" height="24.65" shape-rendering="crispEdges"/><rect fill="#0d1117" x="0" y="806.7" width="280.6" height="24.65" shape-rendering="crispEdges"/><rect fill="#0d1117" x="280.6" y="806.7" width="1037" height="24.65" shape-rendering="crispEdges"/><rect fill="#234266" x="1317.6" y="806.7" width="24.4" height="24.65" shape-rendering="crispEdges"/><rect fill="#0d1117" x="0" y="831.1" width="280.6" height="24.65" shape-rendering="crispEdges"/><rect fill="#0d1117" x="280.6" y="831.1" width="1037" height="24.65" shape-rendering="crispEdges"/><rect fill="#234266" x="1317.6" y="831.1" width="24.4" height="24.65" shape-rendering="crispEdges"/><rect fill="#0d1117" x="0" y="855.5" width="280.6" height="24.65" shape-rendering="crispEdges"/><rect fill="#0d1117" x="280.6" y="855.5" width="1037" height="24.65" shape-rendering="crispEdges"/><rect fill="#234266" x="1317.6" y="855.5" width="24.4" height="24.65" shape-rendering="crispEdges"/><rect fill="#0d1117" x="0" y="879.9" width="0" height="24.65" shape-rendering="crispEdges"/><rect fill="#0d1117" x="0" y="879.9" width="1317.6" height="24.65" shape-rendering="crispEdges"/><rect fill="#234266" x="1317.6" y="879.9" width="24.4" height="24.65" shape-rendering="crispEdges"/><rect fill="#0d1117" x="0" y="904.3" width="122" height="24.65" shape-rendering="crispEdges"/><rect fill="#0d1117" x="122" y="904.3" width="1195.6" height="24.65" shape-rendering="crispEdges"/><rect fill="#234266" x="1317.6" y="904.3" width="24.4" height="24.65" shape-rendering="crispEdges"/><rect fill="#0d1117" x="0" y="928.7" width="97.6" height="24.65" shape-rendering="crispEdges"/><rect fill="#0d1117" x="97.6" y="928.7" width="97.6" height="24.65" shape-rendering="crispEdges"/><rect fill="#0d1117" x="195.2" y="928.7" width="1122.4" height="24.65" shape-rendering="crispEdges"/><rect fill="#234266" x="1317.6" y="928.7" width="24.4" height="24.65" shape-rendering="crispEdges"/><rect fill="#0d1117" x="0" y="953.1" width="97.6" height="24.65" shape-rendering="crispEdges"/><rect fill="#0d1117" x="97.6" y="953.1" width="97.6" height="24.65" shape-rendering="crispEdges"/><rect fill="#0d1117" x="195.2" y="953.1" width="1122.4" height="24.65" shape-rendering="crispEdges"/><rect fill="#234266" x="1317.6" y="953.1" width="24.4" height="24.65" shape-rendering="crispEdges"/><rect fill="#0d1117" x="0" y="977.5" width="97.6" height="24.65" shape-rendering="crispEdges"/><rect fill="#0d1117" x="97.6" y="977.5" width="97.6" height="24.65" shape-rendering="crispEdges"/><rect fill="#0d1117" x="195.2" y="977.5" width="1122.4" height="24.65" shape-rendering="crispEdges"/><rect fill="#234266" x="1317.6" y="977.5" width="24.4" height="24.65" shape-rendering="crispEdges"/><rect fill="#0d1117" x="0" y="1001.9" width="0" height="24.65" shape-rendering="crispEdges"/><rect fill="#0d1117" x="0" y="1001.9" width="1317.6" height="24.65" shape-rendering="crispEdges"/><rect fill="#234266" x="1317.6" y="1001.9" width="24.4" height="24.65" shape-rendering="crispEdges"/><rect fill="#0d1117" x="0" y="1026.3" width="292.8" height="24.65" shape-rendering="crispEdges"/><rect fill="#0d1117" x="292.8" y="1026.3" width="1024.8" height="24.65" shape-rendering="crispEdges"/><rect fill="#234266" x="1317.6" y="1026.3" width="24.4" height="24.65" shape-rendering="crispEdges"/><rect fill="#0d1117" x="0" y="1050.7" width="585.6" height="24.65" shape-rendering="crispEdges"/><rect fill="#0d1117" x="585.6" y="1050.7" width="732" height="24.65" shape-rendering="crispEdges"/><rect fill="#234266" x="1317.6" y="1050.7" width="24.4" height="24.65" shape-rendering="crispEdges"/><rect fill="#0d1117" x="0" y="1075.1" width="1317.6" height="24.65" shape-rendering="crispEdges"/><rect fill="#234266" x="1317.6" y="1075.1" width="24.4" height="24.65" shape-rendering="crispEdges"/><rect fill="#0d1117" x="0" y="1099.5" width="1317.6" height="24.65" shape-rendering="crispEdges"/><rect fill="#234266" x="1317.6" y="1099.5" width="24.4" height="24.65" shape-rendering="crispEdges"/><rect fill="#0d1117" x="0" y="1123.9" width="1317.6" height="24.65" shape-rendering="crispEdges"/><rect fill="#000000" x="1317.6" y="1123.9" width="24.4" height="24.65" shape-rendering="crispEdges"/><rect fill="#0d1117" x="0" y="1148.3" width="1317.6" height="24.65" shape-rendering="crispEdges"/><rect fill="#000000" x="1317.6" y="1148.3" width="24.4" height="24.65" shape-rendering="crispEdges"/><rect fill="#0d1117" x="0" y="1172.7" width="12.2" height="24.65" shape-rendering="crispEdges"/><rect fill="#0d1117" x="12.2" y="1172.7" width="1000.4" height="24.65" shape-rendering="crispEdges"/><rect fill="#0d1117" x="1012.6" y="1172.7" width="292.8" height="24.65" shape-rendering="crispEdges"/><rect fill="#0d1117" x="1305.4" y="1172.7" width="12.2" height="24.65" shape-rendering="crispEdges"/><rect fill="#000000" x="1317.6" y="1172.7" width="24.4" height="24.65" shape-rendering="crispEdges"/>
    <g class="terminal-133882381-matrix">
    <text class="terminal-133882381-r2" x="12.2" y="20" textLength="85.4" clip-path="url(#terminal-133882381-line-0)">&#160;t212&#160;&#160;</text><text class="terminal-133882381-r3" x="97.6" y="20" textLength="73.2" clip-path="url(#terminal-133882381-line-0)">●&#160;live</text><text class="terminal-133882381-r2" x="170.8" y="20" textLength="158.6" clip-path="url(#terminal-133882381-line-0)">&#160;·&#160;LIVE&#160;·&#160;GBP</text><text class="terminal-133882381-r1" x="1342" y="20" textLength="12.2" clip-path="url(#terminal-133882381-line-0)">
</text><text class="terminal-133882381-r5" x="12.2" y="44.4" textLength="219.6" clip-path="url(#terminal-133882381-line-1)">&#160;Portfolio&#160;value&#160;&#160;</text><text class="terminal-133882381-r2" x="231.8" y="44.4" textLength="122" clip-path="url(#terminal-133882381-line-1)">£24,813.07</text><text class="terminal-133882381-r5" x="353.8" y="44.4" textLength="109.8" clip-path="url(#terminal-133882381-line-1)">&#160;&#160;&#160;Today&#160;</text><text class="terminal-133882381-r6" x="463.6" y="44.4" textLength="122" clip-path="url(#terminal-133882381-line-1)">▼&#160;−£107.48</text><text class="terminal-133882381-r5" x="585.6" y="44.4" textLength="183" clip-path="url(#terminal-133882381-line-1)">&#160;&#160;&#160;Free&#160;£312.40</text><text class="terminal-133882381-r1" x="1342" y="44.4" textLength="12.2" clip-path="url(#terminal-133882381-line-1)">
</text><text class="terminal-133882381-r1" x="1342" y="68.8" textLength="12.2" clip-path="url(#terminal-133882381-line-2)">
</text><text class="terminal-133882381-r8" x="12.2" y="93.2" textLength="158.6" clip-path="url(#terminal-133882381-line-3)">&#160;1&#160;Dashboard&#160;</text><text class="terminal-133882381-r5" x="183" y="93.2" textLength="158.6" clip-path="url(#terminal-133882381-line-3)">&#160;2&#160;Positions&#160;</text><text class="terminal-133882381-r5" x="353.8" y="93.2" textLength="97.6" clip-path="url(#terminal-133882381-line-3)">&#160;3&#160;Pies&#160;</text><text class="terminal-133882381-r5" x="463.6" y="93.2" textLength="134.2" clip-path="url(#terminal-133882381-line-3)">&#160;4&#160;History&#160;</text><text class="terminal-133882381-r5" x="610" y="93.2" textLength="122" clip-path="url(#terminal-133882381-line-3)">&#160;5&#160;Search&#160;</text><text class="terminal-133882381-r1" x="1342" y="93.2" textLength="12.2" clip-path="url(#terminal-133882381-line-3)">
</text><text class="terminal-133882381-r5" x="0" y="117.6" textLength="134.2" clip-path="url(#terminal-133882381-line-4)">INVESTMENTS</text><text class="terminal-133882381-r1" x="1342" y="117.6" textLength="12.2" clip-path="url(#terminal-133882381-line-4)">
</text><text class="terminal-133882381-r7" x="0" y="142" textLength="292.8" clip-path="url(#terminal-133882381-line-5)">Value&#160;&#160;&#160;&#160;&#160;&#160;&#160;£24,395.17&#160;&#160;</text><text class="terminal-133882381-r5" x="292.8" y="142" textLength="183" clip-path="url(#terminal-133882381-line-5)">cost&#160;£23,190.84</text><text class="terminal-133882381-r1" x="1342" y="142" textLength="12.2" clip-path="url(#terminal-133882381-line-5)">
</text><text class="terminal-133882381-r7" x="0" y="166.4" textLength="146.4" clip-path="url(#terminal-133882381-line-6)">Unrealised&#160;&#160;</text><text class="terminal-133882381-r3" x="146.4" y="166.4" textLength="244" clip-path="url(#terminal-133882381-line-6)">▲&#160;+£1,204.33&#160;&#160;+5.19%</text><text class="terminal-133882381-r1" x="1342" y="166.4" textLength="12.2" clip-path="url(#terminal-133882381-line-6)">
</text><text class="terminal-133882381-r7" x="0" y="190.8" textLength="146.4" clip-path="url(#terminal-133882381-line-7)">Realised&#160;&#160;&#160;&#160;</text><text class="terminal-133882381-r3" x="146.4" y="190.8" textLength="122" clip-path="url(#terminal-133882381-line-7)">▲&#160;+£430.11</text><text class="terminal-133882381-r1" x="1342" y="190.8" textLength="12.2" clip-path="url(#terminal-133882381-line-7)">
</text><text class="terminal-133882381-r1" x="1342" y="215.2" textLength="12.2" clip-path="url(#terminal-133882381-line-8)">
</text><text class="terminal-133882381-r5" x="0" y="239.6" textLength="48.8" clip-path="url(#terminal-133882381-line-9)">CASH</text><text class="terminal-133882381-r1" x="1342" y="239.6" textLength="12.2" clip-path="url(#terminal-133882381-line-9)">
</text><text class="terminal-133882381-r7" x="0" y="264" textLength="231.8" clip-path="url(#terminal-133882381-line-10)">Available&#160;&#160;&#160;£312.40</text><text class="terminal-133882381-r1" x="1342" y="264" textLength="12.2" clip-path="url(#terminal-133882381-line-10)">
</text><text class="terminal-133882381-r7" x="0" y="288.4" textLength="231.8" clip-path="url(#terminal-133882381-line-11)">In&#160;pies&#160;&#160;&#160;&#160;&#160;£105.50</text><text class="terminal-133882381-r1" x="1342" y="288.4" textLength="12.2" clip-path="url(#terminal-133882381-line-11)">
</text><text class="terminal-133882381-r7" x="0" y="312.8" textLength="207.4" clip-path="url(#terminal-133882381-line-12)">Reserved&#160;&#160;&#160;&#160;£0.00</text><text class="terminal-133882381-r1" x="1342" y="312.8" textLength="12.2" clip-path="url(#terminal-133882381-line-12)">
</text><text class="terminal-133882381-r7" x="0" y="337.2" textLength="146.4" clip-path="url(#terminal-133882381-line-13)">Total&#160;&#160;&#160;&#160;&#160;&#160;&#160;</text><text class="terminal-133882381-r2" x="146.4" y="337.2" textLength="122" clip-path="url(#terminal-133882381-line-13)">£24,813.07</text><text class="terminal-133882381-r1" x="1342" y="337.2" textLength="12.2" clip-path="url(#terminal-133882381-line-13)">
</text><text class="terminal-133882381-r1" x="1342" y="361.6" textLength="12.2" clip-path="url(#terminal-133882381-line-14)">
</text><text class="terminal-133882381-r5" x="0" y="386" textLength="48.8" clip-path="url(#terminal-133882381-line-15)">PIES</text><text class="terminal-133882381-r1" x="1342" y="386" textLength="12.2" clip-path="url(#terminal-133882381-line-15)">
</text><text class="terminal-133882381-r7" x="0" y="410.4" textLength="390.4" clip-path="url(#terminal-133882381-line-16)">Growth&#160;Pie&#160;&#160;&#160;&#160;&#160;&#160;&#160;&#160;&#160;&#160;&#160;£8,204.10&#160;&#160;</text><text class="terminal-133882381-r3" x="390.4" y="410.4" textLength="219.6" clip-path="url(#terminal-133882381-line-16)">▲&#160;+£612.40&#160;&#160;+8.07%</text><text class="terminal-133882381-r5" x="634.4" y="410.4" textLength="61" clip-path="url(#terminal-133882381-line-16)">AHEAD</text><text class="terminal-133882381-r1" x="1342" y="410.4" textLength="12.2" clip-path="url(#terminal-133882381-line-16)">
</text><text class="terminal-133882381-r7" x="0" y="434.8" textLength="390.4" clip-path="url(#terminal-133882381-line-17)">Growth&#160;Pie&#160;&#160;&#160;&#160;&#160;&#160;&#160;&#160;&#160;&#160;&#160;&#160;&#160;£261.30&#160;&#160;</text><text class="terminal-133882381-r3" x="390.4" y="434.8" textLength="207.4" clip-path="url(#terminal-133882381-line-17)">▲&#160;+£11.30&#160;&#160;+4.52%</text><text class="terminal-133882381-r1" x="1342" y="434.8" textLength="12.2" clip-path="url(#terminal-133882381-line-17)">
</text><text class="terminal-133882381-r1" x="1342" y="459.2" textLength="12.2" clip-path="url(#terminal-133882381-line-18)">
</text><text class="terminal-133882381-r5" x="0" y="483.6" textLength="170.8" clip-path="url(#terminal-133882381-line-19)">PENDING&#160;ORDERS</text><text class="terminal-133882381-r1" x="1342" y="483.6" textLength="12.2" clip-path="url(#terminal-133882381-line-19)">
</text><text class="terminal-133882381-r3" x="0" y="508" textLength="36.6" clip-path="url(#terminal-133882381-line-20)">BUY</text><text class="terminal-133882381-r7" x="36.6" y="508" textLength="280.6" clip-path="url(#terminal-133882381-line-20)">&#160;LIMIT&#160;AAPL&#160;2&#160;@&#160;180.00&#160;</text><text class="terminal-133882381-r5" x="317.2" y="508" textLength="134.2" clip-path="url(#terminal-133882381-line-20)">·&#160;NEW&#160;·&#160;GTC</text><text class="terminal-133882381-r1" x="1342" y="508" textLength="12.2" clip-path="url(#terminal-133882381-line-20)">
</text><text class="terminal-133882381-r6" x="0" y="532.4" textLength="48.8" clip-path="url(#terminal-133882381-line-21)">SELL</text><text class="terminal-133882381-r7" x="48.8" y="532.4" textLength="305" clip-path="url(#terminal-133882381-line-21)">&#160;STOP&#160;TSLA&#160;4&#160;stop&#160;220.00&#160;</text><text class="terminal-133882381-r5" x="353.8" y="532.4" textLength="134.2" clip-path="url(#terminal-133882381-line-21)">·&#160;NEW&#160;·&#160;DAY</text><text class="terminal-133882381-r1" x="1342" y="532.4" textLength="12.2" clip-path="url(#terminal-133882381-line-21)">
</text><text class="terminal-133882381-r1" x="1342" y="556.8" textLength="12.2" clip-path="url(#terminal-133882381-line-22)">
</text><text class="terminal-133882381-r5" x="0" y="581.2" textLength="207.4" clip-path="url(#terminal-133882381-line-23)">INCOME&#160;·&#160;all-time</text><text class="terminal-133882381-r1" x="1342" y="581.2" textLength="12.2" clip-path="url(#terminal-133882381-line-23)">
</text><text class="terminal-133882381-r7" x="0" y="605.6" textLength="219.6" clip-path="url(#terminal-133882381-line-24)">Dividends&#160;&#160;&#160;£16.30</text><text class="terminal-133882381-r1" x="1342" y="605.6" textLength="12.2" clip-path="url(#terminal-133882381-line-24)">
</text><text class="terminal-133882381-r7" x="0" y="630" textLength="207.4" clip-path="url(#terminal-133882381-line-25)">Interest&#160;&#160;&#160;&#160;£1.95</text><text class="terminal-133882381-r1" x="1342" y="630" textLength="12.2" clip-path="url(#terminal-133882381-line-25)">
</text><text class="terminal-133882381-r7" x="0" y="654.4" textLength="219.6" clip-path="url(#terminal-133882381-line-26)">Last&#160;12m&#160;&#160;&#160;&#160;£18.25</text><text class="terminal-133882381-r1" x="1342" y="654.4" textLength="12.2" clip-path="url(#terminal-133882381-line-26)">
</text><text class="terminal-133882381-r1" x="1342" y="678.8" textLength="12.2" clip-path="url(#terminal-133882381-line-27)">
</text><text class="terminal-133882381-r5" x="0" y="703.2" textLength="97.6" clip-path="url(#terminal-133882381-line-28)">DEPOSITS</text><text class="terminal-133882381-r1" x="1342" y="703.2" textLength="12.2" clip-path="url(#terminal-133882381-line-28)">
</text><text class="terminal-133882381-r7" x="0" y="727.6" textLength="268.4" clip-path="url(#terminal-133882381-line-29)">Net&#160;deposits&#160;£1,300.00</text><text class="terminal-133882381-r1" x="1342" y="727.6" textLength="12.2" clip-path="url(#terminal-133882381-line-29)">
</text><text class="terminal-133882381-r7" x="0" y="752" textLength="158.6" clip-path="url(#terminal-133882381-line-30)">Total&#160;gain&#160;&#160;&#160;</text><text class="terminal-133882381-r3" x="158.6" y="752" textLength="158.6" clip-path="url(#terminal-133882381-line-30)">▲&#160;+£23,513.07</text><text class="terminal-133882381-r1" x="1342" y="752" textLength="12.2" clip-path="url(#terminal-133882381-line-30)">
</text><text class="terminal-133882381-r1" x="1342" y="776.4" textLength="12.2" clip-path="url(#terminal-133882381-line-31)">
</text><text class="terminal-133882381-r5" x="0" y="800.8" textLength="244" clip-path="url(#terminal-133882381-line-32)">ALLOCATION&#160;·&#160;by&#160;type</text><text class="terminal-133882381-r1" x="1342" y="800.8" textLength="12.2" clip-path="url(#terminal-133882381-line-32)">
</text><text class="terminal-133882381-r7" x="0" y="825.2" textLength="280.6" clip-path="url(#terminal-133882381-line-33)">Stocks&#160;▰▰▰▰▰▰▱▱▱▱&#160;&#160;&#160;61%</text><text class="terminal-133882381-r1" x="1342" y="825.2" textLength="12.2" clip-path="url(#terminal-133882381-line-33)">
</text><text class="terminal-133882381-r7" x="0" y="849.6" textLength="280.6" clip-path="url(#terminal-133882381-line-34)">Etfs&#160;&#160;&#160;▰▰▰▱▱▱▱▱▱▱&#160;&#160;&#160;35%</text><text class="terminal-133882381-r1" x="1342" y="849.6" textLength="12.2" clip-path="url(#terminal-133882381-line-34)">
</text><text class="terminal-133882381-r7" x="0" y="874" textLength="280.6" clip-path="url(#terminal-133882381-line-35)">Cash&#160;&#160;&#160;▱▱▱▱▱▱▱▱▱▱&#160;&#160;&#160;&#160;5%</text><text class="terminal-133882381-r1" x="1342" y="874" textLength="12.2" clip-path="url(#terminal-133882381-line-35)">
</text><text class="terminal-133882381-r1" x="1342" y="898.4" textLength="12.2" clip-path="url(#terminal-133882381-line-36)">
</text><text class="terminal-133882381-r5" x="0" y="922.8" textLength="122" clip-path="url(#terminal-133882381-line-37)">TOP&#160;MOVERS</text><text class="terminal-133882381-r1" x="1342" y="922.8" textLength="12.2" clip-path="url(#terminal-133882381-line-37)">
</text><text class="terminal-133882381-r7" x="0" y="947.2" textLength="97.6" clip-path="url(#terminal-133882381-line-38)">AAPL&#160;&#160;&#160;&#160;</text><text class="terminal-133882381-r3" x="97.6" y="947.2" textLength="97.6" clip-path="url(#terminal-133882381-line-38)">▲&#160;+6.12%</text><text class="terminal-133882381-r1" x="1342" y="947.2" textLength="12.2" clip-path="url(#terminal-133882381-line-38)">
</text><text class="terminal-133882381-r7" x="0" y="971.6" textLength="97.6" clip-path="url(#terminal-133882381-line-39)">TSLA&#160;&#160;&#160;&#160;</text><text class="terminal-133882381-r6" x="97.6" y="971.6" textLength="97.6" clip-path="url(#terminal-133882381-line-39)">▼&#160;−1.81%</text><text class="terminal-133882381-r1" x="1342" y="971.6" textLength="12.2" clip-path="url(#terminal-133882381-line-39)">
</text><text class="terminal-133882381-r7" x="0" y="996" textLength="97.6" clip-path="url(#terminal-133882381-line-40)">VUSA&#160;&#160;&#160;&#160;</text><text class="terminal-133882381-r3" x="97.6" y="996" textLength="97.6" clip-path="url(#terminal-133882381-line-40)">▲&#160;+0.39%</text><text class="terminal-133882381-r1" x="1342" y="996" textLength="12.2" clip-path="url(#terminal-133882381-line-40)">
</text><text class="terminal-133882381-r1" x="1342" y="1020.4" textLength="12.2" clip-path="url(#terminal-133882381-line-41)">
</text><text class="terminal-133882381-r5" x="0" y="1044.8" textLength="292.8" clip-path="url(#terminal-133882381-line-42)">EQUITY&#160;·&#160;since&#160;first&#160;run</text><text class="terminal-133882381-r1" x="1342" y="1044.8" textLength="12.2" clip-path="url(#terminal-133882381-line-42)">
</text><text class="terminal-133882381-r7" x="0" y="1069.2" textLength="585.6" clip-path="url(#terminal-133882381-line-43)">▃▂▂▁▁▁▁▁▁▂▂▃▃▃▃▃▃▃▄▅▅▆▆▆▆▅▅▅▅▅▅▅▅▅▅▄▄▄▄▄▅▆▇▇▇█▇▇</text><text class="terminal-133882381-r1" x="1342" y="1069.2" textLength="12.2" clip-path="url(#terminal-133882381-line-43)">
</text><text class="terminal-133882381-r1" x="1342" y="1093.6" textLength="12.2" clip-path="url(#terminal-133882381-line-44)">
</text><text class="terminal-133882381-r9" x="1317.6" y="1118" textLength="24.4" clip-path="url(#terminal-133882381-line-45)">▅▅</text><text class="terminal-133882381-r1" x="1342" y="1118" textLength="12.2" clip-path="url(#terminal-133882381-line-45)">
</text><text class="terminal-133882381-r1" x="1342" y="1142.4" textLength="12.2" clip-path="url(#terminal-133882381-line-46)">
</text><text class="terminal-133882381-r1" x="1342" y="1166.8" textLength="12.2" clip-path="url(#terminal-133882381-line-47)">
</text><text class="terminal-133882381-r10" x="12.2" y="1191.2" textLength="1000.4" clip-path="url(#terminal-133882381-line-48)">1-5&#160;tabs&#160;·&#160;⏎&#160;detail&#160;·&#160;?&#160;help&#160;·&#160;q&#160;quit&#160;·&#160;z&#160;privacy&#160;·&#160;t&#160;theme&#160;·&#160;r&#160;refresh&#160;·&#160;j/k&#160;move</text>
    </g>
    </g>
</svg>
