<svg class="rich-terminal" viewBox="0 0 1360 635.5999999999999" xmlns="http://www.w3.org/2000/svg">
    <!-- Generated with Rich https://www.textualize.io -->
    <style>

    @font-face {
        font-family: "Fira Code";
        src: local("FiraCode-Regular"),
                url("https://cdnjs.cloudflare.com/ajax/libs/firacode/6.2.0/woff2/FiraCode-Regular.woff2") format("woff2"),
                url("https://cdnjs.cloudflare.com/ajax/libs/firacode/6.2.0/woff/FiraCode-Regular.woff") format("woff");
        font-style: normal;
        font-weight: 400;
    }
    @font-face {
        font-family: "Fira Code";
        src: local("FiraCode-Bold"),
                url("https://cdnjs.cloudflare.com/ajax/libs/firacode/6.2.0/woff2/FiraCode-Bold.woff2") format("woff2"),
                url("https://cdnjs.cloudflare.com/ajax/libs/firacode/6.2.0/woff/FiraCode-Bold.woff") format("woff");
        font-style: bold;
        font-weight: 700;
    }

    .terminal-2209665464-matrix {
        font-family: Fira Code, monospace;
        font-size: 20px;
        line-height: 24.4px;
        font-variant-east-asian: full-width;
    }

    .terminal-2209665464-title {
        font-size: 18px;
        font-weight: bold;
        font-family: arial;
    }

    .terminal-2209665464-r1 { fill: #c5c8c6 }
.terminal-2209665464-r2 { fill: #e6edf3;font-weight: bold }
.terminal-2209665464-r3 { fill: #3fb950 }
.terminal-2209665464-r4 { fill: #9ca2a8 }
.terminal-2209665464-r5 { fill: #f75149 }
.terminal-2209665464-r6 { fill: #e6edf3 }
.terminal-2209665464-r7 { fill: #58a6ff;font-weight: bold }
.terminal-2209665464-r8 { fill: #a9abae;font-weight: bold }
.terminal-2209665464-r9 { fill: #0b1521;font-weight: bold }
.terminal-2209665464-r10 { fill: #25466c;font-weight: bold }
.terminal-2209665464-r11 { fill: #98e024 }
.terminal-2209665464-r12 { fill: #a2a9af }
.terminal-2209665464-r13 { fill: #6c6e72 }
    </style>

    <defs>
    <clipPath id="terminal-2209665464-clip-terminal">
      <rect x="0" y="0" width="1341.0" height="584.5999999999999" />
    </clipPath>
    <clipPath id="terminal-2209665464-line-0">
    <rect x="0" y="1.5" width="1342" height="24.65"/>
            </clipPath>
<clipPath id="terminal-2209665464-line-1">
    <rect x="0" y="25.9" width="1342" height="24.65"/>
            </clipPath>
<clipPath id="terminal-2209665464-line-2">
    <rect x="0" y="50.3" width="1342" height="24.65"/>
            </clipPath>
<clipPath id="terminal-2209665464-line-3">
    <rect x="0" y="74.7" width="1342" height="24.65"/>
            </clipPath>
<clipPath id="terminal-2209665464-line-4">
    <rect x="0" y="99.1" width="1342" height="24.65"/>
            </clipPath>
<clipPath id="terminal-2209665464-line-5">
    <rect x="0" y="123.5" width="1342" height="24.65"/>
            </clipPath>
<clipPath id="terminal-2209665464-line-6">
    <rect x="0" y="147.9" width="1342" height="24.65"/>
            </clipPath>
<clipPath id="terminal-2209665464-line-7">
    <rect x="0" y="172.3" width="1342" height="24.65"/>
            </clipPath>
<clipPath id="terminal-2209665464-line-8">
    <rect x="0" y="196.7" width="1342" height="24.65"/>
            </clipPath>
<clipPath id="terminal-2209665464-line-9">
    <rect x="0" y="221.1" width="1342" height="24.65"/>
            </clipPath>
<clipPath id="terminal-2209665464-line-10">
    <rect x="0" y="245.5" width="1342" height="24.65"/>
            </clipPath>
<clipPath id="terminal-2209665464-line-11">
    <rect x="0" y="269.9" width="1342" height="24.65"/>
            </clipPath>
<clipPath id="terminal-2209665464-line-12">
    <rect x="0" y="294.3" width="1342" height="24.65"/>
            </clipPath>
<clipPath id="terminal-2209665464-line-13">
    <rect x="0" y="318.7" width="1342" height="24.65"/>
            </clipPath>
<clipPath id="terminal-2209665464-line-14">
    <rect x="0" y="343.1" width="1342" height="24.65"/>
            </clipPath>
<clipPath id="terminal-2209665464-line-15">
    <rect x="0" y="367.5" width="1342" height="24.65"/>
            </clipPath>
<clipPath id="terminal-2209665464-line-16">
    <rect x="0" y="391.9" width="1342" height="24.65"/>
            </clipPath>
<clipPath id="terminal-2209665464-line-17">
    <rect x="0" y="416.3" width="1342" height="24.65"/>
            </clipPath>
<clipPath id="terminal-2209665464-line-18">
    <rect x="0" y="440.7" width="1342" height="24.65"/>
            </clipPath>
<clipPath id="terminal-2209665464-line-19">
    <rect x="0" y="465.1" width="1342" height="24.65"/>
            </clipPath>
<clipPath id="terminal-2209665464-line-20">
    <rect x="0" y="489.5" width="1342" height="24.65"/>
            </clipPath>
<clipPath id="terminal-2209665464-line-21">
    <rect x="0" y="513.9" width="1342" height="24.65"/>
            </clipPath>
<clipPath id="terminal-2209665464-line-22">
    <rect x="0" y="538.3" width="1342" height="24.65"/>
            </clipPath>
    </defs>

    <rect fill="#292929" stroke="rgba(255,255,255,0.35)" stroke-width="1" x="1" y="1" width="1358" height="633.6" rx="8"/><text class="terminal-2209665464-title" fill="#c5c8c6" text-anchor="middle" x="679" y="27">t212</text>
            <g transform="translate(26,22)">
            <circle cx="0" cy="0" r="7" fill="#ff5f57"/>
            <circle cx="22" cy="0" r="7" fill="#febc2e"/>
            <circle cx="44" cy="0" r="7" fill="#28c840"/>
            </g>
        
    <g transform="translate(9, 41)" clip-path="url(#terminal-2209665464-clip-terminal)">
    <rect fill="#0d1117" x="0" y="1.5" width="12.2" height="24.65" shape-rendering="crispEdges"/><rect fill="#0d1117" x="12.2" y="1.5" width="85.4" height="24.65" shape-rendering="crispEdges"/><rect fill="#0d1117" x="97.6" y="1.5" width="73.2" height="24.65" shape-rendering="crispEdges"/><rect fill="#0d1117" x="170.8" y="1.5" width="158.6" height="24.65" shape-rendering="crispEdges"/><rect fill="#0d1117" x="329.4" y="1.5" width="1000.4" height="24.65" shape-rendering="crispEdges"/><rect fill="#0d1117" x="1329.8" y="1.5" width="12.2" height="24.65" shape-rendering="crispEdges"/><rect fill="#0d1117" x="0" y="25.9" width="12.2" height="24.65" shape-rendering="crispEdges"/><rect fill="#0d1117" x="12.2" y="25.9" width="219.6" height="24.65" shape-rendering="crispEdges"/><rect fill="#0d1117" x="231.8" y="25.9" width="122" height="24.65" shape-rendering="crispEdges"/><rect fill="#0d1117" x="353.8" y="25.9" width="109.8" height="24.65" shape-rendering="crispEdges"/><rect fill="#0d1117" x="463.6" y="25.9" width="122" height="24.65" shape-rendering="crispEdges"/><rect fill="#0d1117" x="585.6" y="25.9" width="183" height="24.65" shape-rendering="crispEdges"/><rect fill="#0d1117" x="768.6" y="25.9" width="561.2" height="24.65" shape-rendering="crispEdges"/><rect fill="#0d1117" x="1329.8" y="25.9" width="12.2" height="24.65" shape-rendering="crispEdges"/><rect fill="#0d1117" x="0" y="50.3" width="12.2" height="24.65" shape-rendering="crispEdges"/><rect fill="#0d1117" x="12.2" y="50.3" width="1317.6" height="24.65" shape-rendering="crispEdges"/><rect fill="#0d1117" x="1329.8" y="50.3" width="12.2" height="24.65" shape-rendering="crispEdges"/><rect fill="#0d1117" x="0" y="74.7" width="12.2" height="24.65" shape-rendering="crispEdges"/><rect fill="#0d1117" x="12.2" y="74.7" width="158.6" height="24.65" shape-rendering="crispEdges"/><rect fill="#0d1117" x="170.8" y="74.7" width="12.2" height="24.65" shape-rendering="crispEdges"/><rect fill="#0d1117" x="183" y="74.7" width="158.6" height="24.65" shape-rendering="crispEdges"/><rect fill="#0d1117" x="341.6" y="74.7" width="12.2" height="24.65" shape-rendering="crispEdges"/><rect fill="#0d1117" x="353.8" y="74.7" width="97.6" height="24.65" shape-rendering="crispEdges"/><rect fill="#0d1117" x="451.4" y="74.7" width="12.2" height="24.65" shape-rendering="crispEdges"/><rect fill="#0d1117" x="463.6" y="74.7" width="134.2" height="24.65" shape-rendering="crispEdges"/><rect fill="#0d1117" x="597.8" y="74.7" width="12.2" height="24.65" shape-rendering="crispEdges"/><rect fill="#0d1117" x="610" y="74.7" width="122" height="24.65" shape-rendering="crispEdges"/><rect fill="#0d1117" x="732" y="74.7" width="597.8" height="24.65" shape-rendering="crispEdges"/><rect fill="#0d1117" x="1329.8" y="74.7" width="12.2" height="24.65" shape-rendering="crispEdges"/><rect fill="#0d1117" x="0" y="99.1" width="427" height="24.65" shape-rendering="crispEdges"/><rect fill="#0d1117" x="427" y="99.1" width="915" height="24.65" shape-rendering="crispEdges"/><rect fill="#0d1117" x="0" y="123.5" width="256.2" height="24.65" shape-rendering="crispEdges"/><rect fill="#0d1117" x="256.2" y="123.5" width="1085.8" height="24.65" shape-rendering="crispEdges"/><rect fill="#2a2f36" x="0" y="147.9" width="158.6" height="24.65" shape-rendering="crispEdges"/><rect fill="#2a2f36" x="158.6" y="147.9" width="97.6" height="24.65" shape-rendering="crispEdges"/><rect fill="#2a2f36" x="256.2" y="147.9" width="73.2" height="24.65" shape-rendering="crispEdges"/><rect fill="#2a2f36" x="329.4" y="147.9" width="97.6" height="24.65" shape-rendering="crispEdges"/><rect fill="#2a2f36" x="427" y="147.9" width="61" height="24.65" shape-rendering="crispEdges"/><rect fill="#2a2f36" x="488" y="147.9" width="97.6" height="24.65" shape-rendering="crispEdges"/><rect fill="#2a2f36" x="585.6" y="147.9" width="109.8" height="24.65" shape-rendering="crispEdges"/><rect fill="#2a2f36" x="695.4" y="147.9" width="134.2" height="24.65" shape-rendering="crispEdges"/><rect fill="#2a2f36" x="829.6" y="147.9" width="85.4" height="24.65" shape-rendering="crispEdges"/><rect fill="#2a2f36" x="915" y="147.9" width="97.6" height="24.65" shape-rendering="crispEdges"/><rect fill="#2a2f36" x="1012.6" y="147.9" width="329.4" height="24.65" shape-rendering="crispEdges"/><rect fill="#58a6ff" x="0" y="172.3" width="158.6" height="24.65" shape-rendering="crispEdges"/><rect fill="#58a6ff" x="158.6" y="172.3" width="97.6" height="24.65" shape-rendering="crispEdges"/><rect fill="#58a6ff" x="256.2" y="172.3" width="73.2" height="24.65" shape-rendering="crispEdges"/><rect fill="#58a6ff" x="329.4" y="172.3" width="97.6" height="24.65" shape-rendering="crispEdges"/><rect fill="#58a6ff" x="427" y="172.3" width="61" height="24.65" shape-rendering="crispEdges"/><rect fill="#58a6ff" x="488" y="172.3" width="97.6" height="24.65" shape-rendering="crispEdges"/><rect fill="#58a6ff" x="585.6" y="172.3" width="109.8" height="24.65" shape-rendering="crispEdges"/><rect fill="#58a6ff" x="695.4" y="172.3" width="12.2" height="24.65" shape-rendering="crispEdges"/><rect fill="#58a6ff" x="707.6" y="172.3" width="97.6" height="24.65" shape-rendering="crispEdges"/><rect fill="#58a6ff" x="805.2" y="172.3" width="24.4" height="24.65" shape-rendering="crispEdges"/><rect fill="#58a6ff" x="829.6" y="172.3" width="12.2" height="24.65" shape-rendering="crispEdges"/><rect fill="#58a6ff" x="841.8" y="172.3" width="61" height="24.65" shape-rendering="crispEdges"/><rect fill="#58a6ff" x="902.8" y="172.3" width="12.2" height="24.65" shape-rendering="crispEdges"/><rect fill="#58a6ff" x="915" y="172.3" width="97.6" height="24.65" shape-rendering="crispEdges"/><rect fill="#58a6ff" x="1012.6" y="172.3" width="329.4" height="24.65" shape-rendering="crispEdges"/><rect fill="#20252c" x="0" y="196.7" width="158.6" height="24.65" shape-rendering="crispEdges"/><rect fill="#20252c" x="158.6" y="196.7" width="97.6" height="24.65" shape-rendering="crispEdges"/><rect fill="#20252c" x="256.2" y="196.7" width="73.2" height="24.65" shape-rendering="crispEdges"/><rect fill="#20252c" x="329.4" y="196.7" width="97.6" height="24.65" shape-rendering="crispEdges"/><rect fill="#20252c" x="427" y="196.7" width="61" height="24.65" shape-rendering="crispEdges"/><rect fill="#20252c" x="488" y="196.7" width="97.6" height="24.65" shape-rendering="crispEdges"/><rect fill="#20252c" x="585.6" y="196.7" width="109.8" height="24.65" shape-rendering="crispEdges"/><rect fill="#20252c" x="695.4" y="196.7" width="12.2" height="24.65" shape-rendering="crispEdges"/><rect fill="#20252c" x="707.6" y="196.7" width="109.8" height="24.65" shape-rendering="crispEdges"/><rect fill="#20252c" x="817.4" y="196.7" width="12.2" height="24.65" shape-rendering="crispEdges"/><rect fill="#20252c" x="829.6" y="196.7" width="12.2" height="24.65" shape-rendering="crispEdges"/><rect fill="#20252c" x="841.8" y="196.7" width="61" height="24.65" shape-rendering="crispEdges"/><rect fill="#20252c" x="902.8" y="196.7" width="12.2" height="24.65" shape-rendering="crispEdges"/><rect fill="#20252c" x="915" y="196.7" width="97.6" height="24.65" shape-rendering="crispEdges"/><rect fill="#20252c" x="1012.6" y="196.7" width="329.4" height="24.65" shape-rendering="crispEdges"/><rect fill="#0d1117" x="0" y="221.1" width="170.8" height="24.65" shape-rendering="crispEdges"/><rect fill="#0d1117" x="170.8" y="221.1" width="1171.2" height="24.65" shape-rendering="crispEdges"/><rect fill="#0d1117" x="0" y="245.5" width="1342" height="24.65" shape-rendering="crispEdges"/><rect fill="#0d1117" x="0" y="269.9" width="1342" height="24.65" shape-rendering="crispEdges"/><rect fill="#0d1117" x="0" y="294.3" width="1342" height="24.65" shape-rendering="crispEdges"/><rect fill="#0d1117" x="0" y="318.7" width="1342" height="24.65" shape-rendering="crispEdges"/><rect fill="#0d1117" x="0" y="343.1" width="1342" height="24.65" shape-rendering="crispEdges"/><rect fill="#0d1117" x="0" y="367.5" width="1342" height="24.65" shape-rendering="crispEdges"/><rect fill="#0d1117" x="0" y="391.9" width="1342" height="24.65" shape-rendering="crispEdges"/><rect fill="#0d1117" x="0" y="416.3" width="1342" height="24.65" shape-rendering="crispEdges"/><rect fill="#0d1117" x="0" y="440.7" width="1342" height="24.65" shape-rendering="crispEdges"/><rect fill="#0d1117" x="0" y="465.1" width="1342" height="24.65" shape-rendering="crispEdges"/><rect fill="#0d1117" x="0" y="489.5" width="1342" height="24.65" shape-rendering="crispEdges"/><rect fill="#0d1117" x="0" y="513.9" width="1342" height="24.65" shape-rendering="crispEdges"/><rect fill="#0d1117" x="0" y="538.3" width="1342" height="24.65" shape-rendering="crispEdges"/><rect fill="#0d1117" x="0" y="562.7" width="12.2" height="24.65" shape-rendering="crispEdges"/><rect fill="#0d1117" x="12.2" y="562.7" width="1268.8" height="24.65" shape-rendering="crispEdges"/><rect fill="#0d1117" x="1281" y="562.7" width="48.8" height="24.65" shape-rendering="crispEdges"/><rect fill="#0d1117" x="1329.8" y="562.7" width="12.2" height="24.65" shape-rendering="crispEdges"/>
    <g class="terminal-2209665464-matrix">
    <text class="terminal-2209665464-r2" x="12.2" y="20" textLength="85.4" clip-path="url(#terminal-2209665464-line-0)">&#160;t212&#160;&#160;</text><text class="terminal-2209665464-r3" x="97.6" y="20" textLength="73.2" clip-path="url(#terminal-2209665464-line-0)">●&#160;live</text><text class="terminal-2209665464-r2" x="170.8" y="20" textLength="158.6" clip-path="url(#terminal-2209665464-line-0)">&#160;·&#160;LIVE&#160;·&#160;GBP</text><text class="terminal-2209665464-r1" x="1342" y="20" textLength="12.2" clip-path="url(#terminal-2209665464-line-0)">
</text><text class="terminal-2209665464-r4" x="12.2" y="44.4" textLength="219.6" clip-path="url(#terminal-2209665464-line-1)">&#160;Portfolio&#160;value&#160;&#160;</text><text class="terminal-2209665464-r2" x="231.8" y="44.4" textLength="122" clip-path="url(#terminal-2209665464-line-1)">£24,813.07</text><text class="terminal-2209665464-r4" x="353.8" y="44.4" textLength="109.8" clip-path="url(#terminal-2209665464-line-1)">&#160;&#160;&#160;Today&#160;</text><text class="terminal-2209665464-r5" x="463.6" y="44.4" textLength="122" clip-path="url(#terminal-2209665464-line-1)">▼&#160;−£107.48</text><text class="terminal-2209665464-r4" x="585.6" y="44.4" textLength="183" clip-path="url(#terminal-2209665464-line-1)">&#160;&#160;&#160;Free&#160;£312.40</text><text class="terminal-2209665464-r1" x="1342" y="44.4" textLength="12.2" clip-path="url(#terminal-2209665464-line-1)">
</text><text class="terminal-2209665464-r1" x="1342" y="68.8" textLength="12.2" clip-path="url(#terminal-2209665464-line-2)">
</text><text class="terminal-2209665464-r4" x="12.2" y="93.2" textLength="158.6" clip-path="url(#terminal-2209665464-line-3)">&#160;1&#160;Dashboard&#160;</text><text class="terminal-2209665464-r4" x="183" y="93.2" textLength="158.6" clip-path="url(#terminal-2209665464-line-3)">&#160;2&#160;Positions&#160;</text><text class="terminal-2209665464-r4" x="353.8" y="93.2" textLength="97.6" clip-path="url(#terminal-2209665464-line-3)">&#160;3&#160;Pies&#160;</text><text class="terminal-2209665464-r7" x="463.6" y="93.2" textLength="134.2" clip-path="url(#terminal-2209665464-line-3)">&#160;4&#160;History&#160;</text><text class="terminal-2209665464-r4" x="610" y="93.2" textLength="122" clip-path="url(#terminal-2209665464-line-3)">&#160;5&#160;Search&#160;</text><text class="terminal-2209665464-r1" x="1342" y="93.2" textLength="12.2" clip-path="url(#terminal-2209665464-line-3)">
</text><text class="terminal-2209665464-r6" x="0" y="117.6" textLength="427" clip-path="url(#terminal-2209665464-line-4)">‹&#160;Orders&#160;›&#160;&#160;Dividends&#160;&#160;Transactions</text><text class="terminal-2209665464-r1" x="1342" y="117.6" textLength="12.2" clip-path="url(#terminal-2209665464-line-4)">
</text><text class="terminal-2209665464-r4" x="0" y="142" textLength="256.2" clip-path="url(#terminal-2209665464-line-5)">2&#160;orders&#160;·&#160;fees&#160;£1.76</text><text class="terminal-2209665464-r1" x="1342" y="142" textLength="12.2" clip-path="url(#terminal-2209665464-line-5)">
</text><text class="terminal-2209665464-r8" x="0" y="166.4" textLength="158.6" clip-path="url(#terminal-2209665464-line-6)">&#160;DATE&#160;&#160;&#160;&#160;&#160;&#160;&#160;&#160;</text><text class="terminal-2209665464-r8" x="158.6" y="166.4" textLength="97.6" clip-path="url(#terminal-2209665464-line-6)">&#160;TICKER&#160;</text><text class="terminal-2209665464-r8" x="256.2" y="166.4" textLength="73.2" clip-path="url(#terminal-2209665464-line-6)">&#160;SIDE&#160;</text><text class="terminal-2209665464-r8" x="329.4" y="166.4" textLength="97.6" clip-path="url(#terminal-2209665464-line-6)">&#160;TYPE&#160;&#160;&#160;</text><text class="terminal-2209665464-r8" x="427" y="166.4" textLength="61" clip-path="url(#terminal-2209665464-line-6)">&#160;QTY&#160;</text><text class="terminal-2209665464-r8" x="488" y="166.4" textLength="97.6" clip-path="url(#terminal-2209665464-line-6)">&#160;FILL&#160;&#160;&#160;</text><text class="terminal-2209665464-r8" x="585.6" y="166.4" textLength="109.8" clip-path="url(#terminal-2209665464-line-6)">&#160;VALUE&#160;&#160;&#160;</text><text class="terminal-2209665464-r8" x="695.4" y="166.4" textLength="134.2" clip-path="url(#terminal-2209665464-line-6)">&#160;REAL.P&amp;L&#160;&#160;</text><text class="terminal-2209665464-r8" x="829.6" y="166.4" textLength="85.4" clip-path="url(#terminal-2209665464-line-6)">&#160;FEES&#160;&#160;</text><text class="terminal-2209665464-r8" x="915" y="166.4" textLength="97.6" clip-path="url(#terminal-2209665464-line-6)">&#160;STATUS&#160;</text><text class="terminal-2209665464-r1" x="1342" y="166.4" textLength="12.2" clip-path="url(#terminal-2209665464-line-6)">
</text><text class="terminal-2209665464-r9" x="0" y="190.8" textLength="158.6" clip-path="url(#terminal-2209665464-line-7)">&#160;06-04&#160;14:11&#160;</text><text class="terminal-2209665464-r9" x="158.6" y="190.8" textLength="97.6" clip-path="url(#terminal-2209665464-line-7)">&#160;AAPL&#160;&#160;&#160;</text><text class="terminal-2209665464-r9" x="256.2" y="190.8" textLength="73.2" clip-path="url(#terminal-2209665464-line-7)">&#160;BUY&#160;&#160;</text><text class="terminal-2209665464-r9" x="329.4" y="190.8" textLength="97.6" clip-path="url(#terminal-2209665464-line-7)">&#160;MARKET&#160;</text><text class="terminal-2209665464-r9" x="427" y="190.8" textLength="61" clip-path="url(#terminal-2209665464-line-7)">&#160;2&#160;&#160;&#160;</text><text class="terminal-2209665464-r9" x="488" y="190.8" textLength="97.6" clip-path="url(#terminal-2209665464-line-7)">&#160;187.10&#160;</text><text class="terminal-2209665464-r9" x="585.6" y="190.8" textLength="109.8" clip-path="url(#terminal-2209665464-line-7)">&#160;£374.20&#160;</text><text class="terminal-2209665464-r10" x="707.6" y="190.8" textLength="97.6" clip-path="url(#terminal-2209665464-line-7)">–&#160;+£0.00</text><text class="terminal-2209665464-r10" x="841.8" y="190.8" textLength="61" clip-path="url(#terminal-2209665464-line-7)">£0.56</text><text class="terminal-2209665464-r9" x="915" y="190.8" textLength="97.6" clip-path="url(#terminal-2209665464-line-7)">&#160;FILLED&#160;</text><text class="terminal-2209665464-r1" x="1342" y="190.8" textLength="12.2" clip-path="url(#terminal-2209665464-line-7)">
</text><text class="terminal-2209665464-r6" x="0" y="215.2" textLength="158.6" clip-path="url(#terminal-2209665464-line-8)">&#160;06-02&#160;09:30&#160;</text><text class="terminal-2209665464-r6" x="158.6" y="215.2" textLength="97.6" clip-path="url(#terminal-2209665464-line-8)">&#160;TSLA&#160;&#160;&#160;</text><text class="terminal-2209665464-r6" x="256.2" y="215.2" textLength="73.2" clip-path="url(#terminal-2209665464-line-8)">&#160;SELL&#160;</text><text class="terminal-2209665464-r6" x="329.4" y="215.2" textLength="97.6" clip-path="url(#terminal-2209665464-line-8)">&#160;LIMIT&#160;&#160;</text><text class="terminal-2209665464-r6" x="427" y="215.2" textLength="61" clip-path="url(#terminal-2209665464-line-8)">&#160;3&#160;&#160;&#160;</text><text class="terminal-2209665464-r6" x="488" y="215.2" textLength="97.6" clip-path="url(#terminal-2209665464-line-8)">&#160;240.00&#160;</text><text class="terminal-2209665464-r6" x="585.6" y="215.2" textLength="109.8" clip-path="url(#terminal-2209665464-line-8)">&#160;£720.00&#160;</text><text class="terminal-2209665464-r11" x="707.6" y="215.2" textLength="109.8" clip-path="url(#terminal-2209665464-line-8)">▲&#160;+£18.40</text><text class="terminal-2209665464-r12" x="841.8" y="215.2" textLength="61" clip-path="url(#terminal-2209665464-line-8)">£1.20</text><text class="terminal-2209665464-r6" x="915" y="215.2" textLength="97.6" clip-path="url(#terminal-2209665464-line-8)">&#160;FILLED&#160;</text><text class="terminal-2209665464-r1" x="1342" y="215.2" textLength="12.2" clip-path="url(#terminal-2209665464-line-8)">
</text><text class="terminal-2209665464-r4" x="0" y="239.6" textLength="170.8" clip-path="url(#terminal-2209665464-line-9)">▾&#160;m:&#160;load&#160;more</text><text class="terminal-2209665464-r1" x="1342" y="239.6" textLength="12.2" clip-path="url(#terminal-2209665464-line-9)">
</text><text class="terminal-2209665464-r1" x="1342" y="264" textLength="12.2" clip-path="url(#terminal-2209665464-line-10)">
</text><text class="terminal-2209665464-r1" x="1342" y="288.4" textLength="12.2" clip-path="url(#terminal-2209665464-line-11)">
</text><text class="terminal-2209665464-r1" x="1342" y="312.8" textLength="12.2" clip-path="url(#terminal-2209665464-line-12)">
</text><text class="terminal-2209665464-r1" x="1342" y="337.2" textLength="12.2" clip-path="url(#terminal-2209665464-line-13)">
</text><text class="terminal-2209665464-r1" x="1342" y="361.6" textLength="12.2" clip-path="url(#terminal-2209665464-line-14)">
</text><text class="terminal-2209665464-r1" x="1342" y="386" textLength="12.2" clip-path="url(#terminal-2209665464-line-15)">
</text><text class="terminal-2209665464-r1" x="1342" y="410.4" textLength="12.2" clip-path="url(#terminal-2209665464-line-16)">
</text><text class="terminal-2209665464-r1" x="1342" y="434.8" textLength="12.2" clip-path="url(#terminal-2209665464-line-17)">
</text><text class="terminal-2209665464-r1" x="1342" y="459.2" textLength="12.2" clip-path="url(#terminal-2209665464-line-18)">
</text><text class="terminal-2209665464-r1" x="1342" y="483.6" textLength="12.2" clip-path="url(#terminal-2209665464-line-19)">
</text><text class="terminal-2209665464-r1" x="1342" y="508" textLength="12.2" clip-path="url(#terminal-2209665464-line-20)">
</text><text class="terminal-2209665464-r1" x="1342" y="532.4" textLength="12.2" clip-path="url(#terminal-2209665464-line-21)">
</text><text class="terminal-2209665464-r1" x="1342" y="556.8" textLength="12.2" clip-path="url(#terminal-2209665464-line-22)">
</text><text class="terminal-2209665464-r13" x="12.2" y="581.2" textLength="1268.8" clip-path="url(#terminal-2209665464-line-23)">1-5&#160;tabs&#160;·&#160;⏎&#160;detail&#160;·&#160;?&#160;help&#160;·&#160;q&#160;quit&#160;·&#160;←→&#160;section&#160;·&#160;m&#160;more&#160;·&#160;z&#160;privacy&#160;·&#160;t&#160;theme&#160;·&#160;r&#160;refresh&#160;·&#160;j/k&#160;move</text>
    </g>
    </g>
</svg>
